# AST/ASF file generated using VICON BodyLanguage
# -----------------------------------------------
:version 1.10
:name VICON
:units
  mass 1.0
  length 0.45
  angle deg
:documentation
   .ast/.asf automatically generated from VICON data using
   VICON BodyBuilder and BodyLanguage model FoxedUp or BRILLIANT.MOD
:root
   order TX TY TZ RX RY RZ
   axis XYZ
   position 0 0 0  
   orientation 0 0 0 
:bonedata
  begin
     id 1 
     name lhipjoint
     direction 0.575328 -0.747301 0.332475 
     length 2.40933 
     axis 0 0 0  XYZ
  end
  begin
     id 2 
     name lfemur
     direction 0.34202 -0.939693 0  
     length 7.31453  
     axis 0 0 20  XYZ
    dof rx ry rz
    limits (-160.0 20.0)
           (-70.0 70.0)
           (-60.0 70.0)
  end
  begin
     id 3 
     name ltibia
     direction 0.34202 -0.939693 0   
     length 7.82185   
     axis 0 0 20   XYZ
    dof rx
    limits (-10.0 170.0)
  end
  begin
     id 4 
     name lfoot
     direction 0.0795993 -0.218697 0.972541   
     length 2.19173   
     axis -90 7.62852e-016 20   XYZ
    dof rx rz
    limits (-45.0 90.0)
           (-70.0 20.0)
  end
  begin
     id 5 
     name ltoes
     direction 1.53537e-011 -4.21894e-011 1   
     length 1.10023   
     axis -90 7.62852e-016 20   XYZ
    dof rx
    limits (-90.0 20.0)
  end
  begin
     id 6 
     name rhipjoint
     direction -0.513884 -0.783789 0.348708   
     length 2.29716  
     axis 0 0 0  XYZ 
  end
  begin
     id 7 
     name rfemur
     direction -0.34202 -0.939693 0   
     length 7.59573   
     axis 0 0 -20   XYZ
    dof rx ry rz
    limits (-160.0 20.0)
           (-70.0 70.0)
           (-70.0 60.0)
  end
  begin
     id 8 
     name rtibia
     direction -0.34202 -0.939693 0   
     length 7.66402   
     axis 0 0 -20   XYZ
    dof rx
    limits (-10.0 170.0)
 end
 begin
     id 9 
     name rfoot
     direction -0.137793 -0.378584 0.915253   
     length 2.27056  
     axis -90 -7.62852e-016 -20   XYZ
    dof rx rz
    limits (-45.0 90.0)
           (-20.0 70.0)
  end
  begin
     id 10 
     name rtoes
     direction -1.53493e-011 -4.22159e-011 1   
     length 1.11766   
     axis -90 -7.62852e-016 -20   XYZ
    dof rx
    limits (-90.0 20.0)
  end
  begin
     id 11 
     name lowerback
     direction -0.00732775 0.998356 -0.05685   
     length 2.16513   
     axis 0 0 0   XYZ
    dof rx ry rz
    limits (-20.0 45.0)
           (-30.0 30.0)
           (-30.0 30.0)
  end
  begin
     id 12 
     name upperback
     direction 0.0218081 0.999627 -0.0164647   
     length 2.16755   
     axis 0 0 0   XYZ
    dof rx ry rz
    limits (-20.0 45.0)
           (-30.0 30.0)
           (-30.0 30.0)
  end
  begin
     id 13 
     name thorax
     direction 0.02365 0.999661 0.0108914   
     length 2.16932   
     axis 0 0 0   XYZ
    dof rx ry rz
    limits (-20.0 45.0)
           (-30.0 30.0)
           (-30.0 30.0)
  end
  begin
     id 14 
     name lowerneck
     direction -0.0523929 0.978385 0.200044   
     length 1.63877   
     axis 0 0 0   XYZ
    dof rx ry rz
    limits (-20.0 45.0)
           (-30.0 30.0)
           (-30.0 30.0)
  end
  begin
     id 15 
     name upperneck
     direction 0.0448674 0.981321 -0.187074   
     length 1.69014   
     axis 0 0 0   XYZ
    dof rx ry rz
    limits (-20.0 45.0)
           (-30.0 30.0)
           (-30.0 30.0)
  end
  begin
     id 16
     name head
     direction 0.0199089 0.996118 -0.0857429  
     length 1.70094  
     axis 0 0 0   XYZ
    dof rx ry rz
    limits (-20.0 45.0)
           (-30.0 30.0)
           (-30.0 30.0)
  end
  begin
     id 17 
     name lclavicle
     direction 0.940366 0.30191 -0.156722  
     length 3.37521  
     axis 0 0 0   XYZ
    dof ry rz
    limits (-20.0 10.0)
           (0.0 20.0)
  end
  begin
     id 18 
     name lhumerus
     direction 1 -4.4897e-011 -1.7911e-027   
     length 5.25287   
     axis 180 -30 -90   XYZ
    dof rx ry rz
    limits (-60.0 90.0)
           (-90.0 90.0)
           (-90.0 90.0)
  end
  begin
     id 19
     name lradius
     direction 1 -4.48951e-011 1.04424e-027   
     length 3.51014   
     axis 180 -30 -90   XYZ
    dof rx
    limits (-10.0 170.0)
  end
  begin
     id 20
     name lwrist
     direction 1 -4.48997e-011 -9.5942e-028   
     length 1.75507   
     axis 8.48502e-016 90 90   XYZ
    dof ry
    limits (-180.0 0.0)
 end
  begin
     id 21 
     name lhand
     direction 1 -4.48831e-011 -1.90777e-027   
     length 0.706179   
     axis 1.22306e-015 90 90   XYZ
    dof rx rz
    limits (-90.0 90.0)
           (-45.0 45.0)
  end
  begin
     id 22 
     name lfingers
     direction 1 -4.49108e-011 -3.85244e-027   
     length 0.569339   
     axis 2.44611e-015 90 90   XYZ
    dof rx
    limits (0.0 90.0)
  end
  begin
     id 23
     name lthumb
     direction 0.707107 -6.34953e-011 0.707107   
     length 0.817461   
     axis -90 45 -1.62303e-014   XYZ
    dof rx rz
    limits (-45.0 45.0)
           (-45.0 45.0)
  end
  begin
     id 24 
     name rclavicle
     direction -0.905329 0.382405 -0.184787   
     length 3.30787  
     axis 0 0 0   XYZ 
    dof ry rz
    limits (-10.0 20.0)
           (-20.0 0.0)
  end
  begin
     id 25 
     name rhumerus
     direction -1 -4.48953e-011 -9.15316e-029  
     length 5.28721   
     axis 180 30 90   XYZ
    dof rx ry rz
    limits (-90.0 60.0)
           (-90.0 90.0)
           (-90.0 90.0)
  end
  begin
     id 26 
     name rradius
     direction -1 -4.48987e-011 9.37824e-028   
     length 3.50544   
     axis 180 30 90   XYZ
    dof rx
    limits (-10.0 170.0)
  end
  begin
     id 27 
     name rwrist
     direction -1 -4.48967e-011 -9.58414e-028   
     length 1.75272   
     axis 8.48502e-016 -90 -90   XYZ
    dof ry
    limits (-180.0 0.0)
  end
  begin
     id 28
     name rhand
     direction -1 -4.48904e-011 -1.91266e-027   
     length 0.884996   
     axis 1.22306e-015 -90 -90   XYZ
    dof rx rz
    limits (-90.0 90.0)
           (-45.0 45.0)
  end
  begin
     id 29
     name rfingers
     direction -1 -4.4909e-011 -3.85015e-027   
     length 0.713507   
     axis 2.44611e-015 -90 -90   XYZ
    dof rx
    limits (0.0 90.0)
  end
  begin
     id 30
     name rthumb
     direction -0.707107 -6.34853e-011 0.707107   
     length 1.02446   
     axis -90 -45 1.62303e-014   XYZ
    dof rx rz
    limits (-45.0 45.0)
           (-45.0 45.0)
  end
:hierarchy
  begin
    root lhipjoint rhipjoint lowerback
    lhipjoint lfemur
    lfemur ltibia
    ltibia lfoot
    lfoot ltoes
    rhipjoint rfemur
    rfemur rtibia
    rtibia rfoot
    rfoot rtoes
    lowerback upperback
    upperback thorax
    thorax lowerneck lclavicle rclavicle
    lowerneck upperneck
    upperneck head
    lclavicle lhumerus
    lhumerus lradius
    lradius lwrist
    lwrist lhand lthumb
    lhand lfingers
    rclavicle rhumerus
    rhumerus rradius
    rradius rwrist
    rwrist rhand rthumb
    rhand rfingers
  end

#!OML:ASF F:\twosubjects\two\Thursday\Session 1\justin.ASF
:FULLY-SPECIFIED
:DEGREES
209
root 7.37125 9.33945 -21.384 -25.2999 -2.50175 0.709313
lowerback 37.5274 1.89212 -1.5929
upperback 13.3299 1.88103 1.667
thorax -3.8326 0.786177 1.92445
lowerneck -18.8068 -3.22585 -8.83488
upperneck -3.02489 -2.65756 7.8431
head 2.26955 -0.94894 3.65065
rclavicle 1.98785e-016 -5.96354e-015
rhumerus 17.2417 38.2593 -72.4923
rradius 61.8471
rwrist 6.26239
rhand 12.2044 7.07991
rfingers 7.12502
rthumb 37.214 -18.9289
lclavicle 1.98785e-016 -5.96354e-015
lhumerus 20.2747 -40.9138 73.3593
lradius 57.5508
lwrist -34.0267
lhand 19.7727 38.0719
lfingers 7.12502
lthumb 44.3233 61.8331
rfemur -68.2717 -18.6217 7.65087
rtibia 87.7701
rfoot 5.34963 5.76698
rtoes -15.0643
lfemur -66.9329 18.8022 -4.85711
ltibia 89.9898
lfoot 0.572292 -18.5391
ltoes -14.9306
210
root 7.36988 9.34128 -21.3824 -25.6216 -2.6505 0.646999
lowerback 37.4946 1.97489 -1.62961
upperback 13.2858 1.9776 1.76157
thorax -3.87946 0.828519 2.00896
lowerneck -19.1511 -3.27052 -9.04387
upperneck -2.22555 -2.67903 7.92323
head 2.56872 -0.950067 3.70391
rclavicle -1.86858e-014 -4.37326e-015
rhumerus 16.8608 38.3472 -72.767
rradius 61.5872
rwrist 6.56072
rhand 11.8774 7.28634
rfingers 7.12502
rthumb 36.9047 -18.8027
lclavicle -1.86858e-014 -4.37326e-015
lhumerus 20.1506 -41.018 73.6517
lradius 57.148
lwrist -34.2378
lhand 19.6924 37.8361
lfingers 7.12502
lthumb 44.2485 61.6257
rfemur -67.9045 -18.4629 7.71689
rtibia 87.7693
rfoot 5.29705 5.81695
rtoes -15.2043
lfemur -66.5475 18.9019 -4.59821
ltibia 90.0285
lfoot 0.609862 -18.8978
ltoes -15.141
211
root 7.36896 9.33732 -21.3795 -25.8776 -2.65514 0.763611
lowerback 37.3817 2.04402 -1.78264
upperback 13.2189 2.01326 1.76153
thorax -3.92122 0.842501 2.07683
lowerneck -19.4938 -3.31902 -9.11802
upperneck -1.24502 -2.73303 7.8127
head 2.92041 -0.977855 3.6727
rclavicle 6.55989e-015 -8.74653e-015
rhumerus 16.6564 38.4108 -72.9536
rradius 61.334
rwrist 6.88522
rhand 11.8594 7.52385
rfingers 7.12502
rthumb 36.8877 -18.5696
lclavicle 6.55989e-015 -8.74653e-015
lhumerus 20.1642 -41.2191 73.6567
lradius 56.755
lwrist -34.252
lhand 19.6697 37.5236
lfingers 7.12502
lthumb 44.2272 61.3212
rfemur -67.6656 -18.4092 7.5535
rtibia 87.8234
rfoot 5.26273 5.85834
rtoes -15.3164
lfemur -66.2347 18.875 -4.60952
ltibia 90.0356
lfoot 0.756593 -18.9297
ltoes -14.963
212
root 7.37141 9.32617 -21.3767 -25.9592 -2.51992 0.868169
lowerback 36.9848 1.97746 -1.76342
upperback 13.1996 1.93684 1.61037
thorax -3.80087 0.813657 1.94124
lowerneck -19.872 -3.35086 -8.908
upperneck -0.393541 -2.81419 7.60727
head 3.23589 -1.0234 3.56391
rclavicle -1.38155e-014 5.96354e-015
rhumerus 16.6063 38.3237 -73.1697
rradius 61.0313
rwrist 7.34059
rhand 11.9825 7.78613
rfingers 7.12502
rthumb 37.0041 -18.2773
lclavicle -1.38155e-014 5.96354e-015
lhumerus 20.4745 -41.5571 73.2369
lradius 56.406
lwrist -34.0076
lhand 19.6844 37.081
lfingers 7.12502
lthumb 44.241 60.8734
rfemur -67.6194 -18.5161 7.33473
rtibia 87.9317
rfoot 5.25358 5.84532
rtoes -15.0212
lfemur -66.205 18.7019 -4.75417
ltibia 90.0752
lfoot 0.674815 -18.9028
ltoes -16.2077
213
root 7.37612 9.31725 -21.3768 -26.0342 -2.39506 0.906212
lowerback 36.5041 1.84168 -1.57154
upperback 13.2655 1.8293 1.39366
thorax -3.55049 0.776613 1.65999
lowerneck -20.2781 -3.40504 -8.7308
upperneck 0.243011 -2.92131 7.6319
head 3.49875 -1.06806 3.53139
rclavicle -5.56597e-015 2.38542e-015
rhumerus 16.6961 38.1364 -73.4634
rradius 60.4992
rwrist 7.8992
rhand 11.6411 7.7156
rfingers 7.12502
rthumb 36.6811 -18.4306
lclavicle -5.56597e-015 2.38542e-015
lhumerus 20.8305 -41.8142 72.7627
lradius 56.2218
lwrist -34.1063
lhand 20.6317 36.5751
lfingers 7.12502
lthumb 45.1231 60.026
rfemur -67.542 -18.6396 7.16741
rtibia 88.0214
rfoot 5.15311 5.84736
rtoes -14.8855
lfemur -66.2385 18.5445 -4.84497
ltibia 90.1424
lfoot 0.814876 -18.7257
ltoes -14.8399
214
root 7.37636 9.31491 -21.3802 -26.2267 -2.36804 0.94779
lowerback 36.2269 1.79711 -1.5006
upperback 13.3059 1.79607 1.27318
thorax -3.54559 0.769283 1.50768
lowerneck -20.5105 -3.40613 -8.61359
upperneck 0.892533 -2.9532 7.55026
head 3.73285 -1.08451 3.48224
rclavicle 7.7526e-015 2.78299e-015
rhumerus 16.6337 38.1292 -73.7682
rradius 60.048
rwrist 8.28421
rhand 11.472 7.40175
rfingers 7.12502
rthumb 36.5211 -18.785
lclavicle 7.7526e-015 2.78299e-015
lhumerus 20.8469 -42.0797 72.5333
lradius 56.1096
lwrist -34.3274
lhand 21.2057 36.344
lfingers 7.12502
lthumb 45.6565 59.5802
rfemur -67.359 -18.6064 7.05737
rtibia 88.03
rfoot 5.09652 5.82704
rtoes -15.3145
lfemur -66.0841 18.4737 -4.83299
ltibia 90.1726
lfoot 1.01452 -18.3599
ltoes -12.7819
215
root 7.37362 9.31565 -21.3849 -26.4663 -2.39608 1.04152
lowerback 36.1623 1.86156 -1.6164
upperback 13.1802 1.83681 1.23266
thorax -3.66294 0.78878 1.51137
lowerneck -20.6743 -3.34657 -8.62011
upperneck 1.58245 -2.88216 7.47982
head 3.96387 -1.05197 3.46691
rclavicle -2.78299e-015 -7.15625e-015
rhumerus 16.2977 38.0904 -74.1414
rradius 59.7829
rwrist 8.67232
rhand 11.5883 7.32051
rfingers 7.12502
rthumb 36.6312 -18.8384
lclavicle -2.78299e-015 -7.15625e-015
lhumerus 20.8088 -42.4171 72.4283
lradius 55.764
lwrist -34.365
lhand 20.6624 36.0525
lfingers 7.12502
lthumb 45.1517 59.4921
rfemur -67.1412 -18.4719 6.95087
rtibia 88.0053
rfoot 5.18423 5.79862
rtoes -15.4834
lfemur -65.7685 18.4081 -4.80135
ltibia 90.1586
lfoot 0.882509 -18.0423
ltoes -14.2449
216
root 7.37596 9.31125 -21.3893 -26.6316 -2.30618 1.17212
lowerback 35.8303 1.92526 -1.809
upperback 13.186 1.86042 1.2296
thorax -3.55002 0.79492 1.60695
lowerneck -20.8296 -3.31615 -8.82977
upperneck 2.15111 -2.81318 7.64036
head 4.16493 -1.0086 3.55874
rclavicle -1.49089e-015 -4.37326e-015
rhumerus 16.0428 37.9085 -74.3492
rradius 59.4577
rwrist 9.05842
rhand 11.3169 7.58922
rfingers 7.12502
rthumb 36.3743 -18.6345
lclavicle -1.49089e-015 -4.37326e-015
lhumerus 20.8973 -42.553 72.5169
lradius 55.2375
lwrist -34.6646
lhand 20.2844 35.5476
lfingers 7.12502
lthumb 44.7999 59.1256
rfemur -66.9949 -18.5441 6.74866
rtibia 87.9891
rfoot 5.2825 5.86513
rtoes -15.0502
lfemur -65.5918 18.2213 -4.90407
ltibia 90.1526
lfoot 1.00726 -17.9567
ltoes -14.4242
217
root 7.3782 9.30277 -21.3916 -26.7669 -2.15344 1.2531
lowerback 35.4749 1.93843 -1.96556
upperback 13.2345 1.83729 1.25692
thorax -3.38039 0.777391 1.73251
lowerneck -21.0281 -3.30632 -8.95342
upperneck 2.59147 -2.76953 7.63347
head 4.32948 -0.986516 3.58103
rclavicle 1.09332e-015 5.1684e-015
rhumerus 16.0303 37.8323 -74.2889
rradius 59.1483
rwrist 9.36564
rhand 11.1444 8.21406
rfingers 7.12502
rthumb 36.2109 -18.0504
lclavicle 1.09332e-015 5.1684e-015
lhumerus 20.9069 -42.4108 72.7583
lradius 54.8954
lwrist -35.1895
lhand 20.2909 35.5552
lfingers 7.12502
lthumb 44.806 59.1308
rfemur -66.8602 -18.725 6.53682
rtibia 87.9932
rfoot 5.26962 5.94312
rtoes -14.746
lfemur -65.5308 18.0277 -5.02284
ltibia 90.1664
lfoot 1.29537 -18.1222
ltoes -11.6655
